<mxfile host="65bd71144e">
    <diagram id="rXzYr1uGYmzX29x-q2_z" name="第 1 页">
        <mxGraphModel dx="2902" dy="2159" grid="1" gridSize="10" guides="1" tooltips="1" connect="1" arrows="1" fold="1" page="1" pageScale="1" pageWidth="827" pageHeight="1169" math="0" shadow="0">
            <root>
                <mxCell id="0"/>
                <mxCell id="1" parent="0"/>
                <mxCell id="60" style="edgeStyle=none;sketch=1;html=1;strokeColor=#0066CC;strokeWidth=2;fontSize=19;fontColor=#0066CC;fillColor=none;entryX=0;entryY=0.5;entryDx=0;entryDy=0;" edge="1" parent="1" source="6" target="39">
                    <mxGeometry relative="1" as="geometry">
                        <mxPoint x="70" y="470" as="targetPoint"/>
                        <Array as="points">
                            <mxPoint x="-50" y="280"/>
                            <mxPoint x="-50" y="470"/>
                        </Array>
                    </mxGeometry>
                </mxCell>
                <mxCell id="6" value="&lt;font style=&quot;&quot;&gt;&lt;b style=&quot;font-size: 19px;&quot;&gt;【Nginx】&lt;/b&gt;&lt;br&gt;&lt;font style=&quot;font-size: 17px;&quot;&gt;提供代理服务&lt;/font&gt;&lt;br&gt;&lt;/font&gt;" style="shape=ext;double=1;rounded=1;whiteSpace=wrap;html=1;fillColor=none;sketch=1;curveFitting=1;jiggle=2;fontColor=#0066CC;strokeColor=#0066CC;" vertex="1" parent="1">
                    <mxGeometry x="10" y="240" width="170" height="80" as="geometry"/>
                </mxCell>
                <mxCell id="8" value="&lt;span style=&quot;font-weight: bold; font-size: 19px;&quot;&gt;【Docker】&lt;/span&gt;&lt;br&gt;&lt;font style=&quot;font-size: 17px;&quot;&gt;构建项目所需环境&lt;/font&gt;" style="shape=ext;double=1;rounded=1;whiteSpace=wrap;html=1;fillColor=none;sketch=1;curveFitting=1;jiggle=2;fontColor=#0066CC;strokeColor=#0066CC;" vertex="1" parent="1">
                    <mxGeometry x="80" y="60" width="560" height="80" as="geometry"/>
                </mxCell>
                <mxCell id="12" value="" style="shape=flexArrow;endArrow=classic;html=1;fontSize=17;fontColor=#0066CC;width=10;fillColor=none;sketch=1;curveFitting=1;jiggle=2;strokeColor=#0066CC;" edge="1" parent="1">
                    <mxGeometry width="50" height="50" relative="1" as="geometry">
                        <mxPoint x="150" y="150" as="sourcePoint"/>
                        <mxPoint x="150" y="230" as="targetPoint"/>
                        <Array as="points">
                            <mxPoint x="150" y="180"/>
                            <mxPoint x="150" y="190"/>
                            <mxPoint x="150" y="200"/>
                        </Array>
                    </mxGeometry>
                </mxCell>
                <mxCell id="15" value="" style="shape=flexArrow;endArrow=classic;html=1;fontSize=17;fontColor=#0066CC;width=10;fillColor=none;sketch=1;curveFitting=1;jiggle=2;strokeColor=#0066CC;" edge="1" parent="1">
                    <mxGeometry width="50" height="50" relative="1" as="geometry">
                        <mxPoint x="230" y="150" as="sourcePoint"/>
                        <mxPoint x="230" y="230" as="targetPoint"/>
                        <Array as="points">
                            <mxPoint x="230" y="170"/>
                            <mxPoint x="230" y="190"/>
                            <mxPoint x="230" y="210"/>
                        </Array>
                    </mxGeometry>
                </mxCell>
                <mxCell id="16" value="" style="shape=flexArrow;endArrow=classic;html=1;fontSize=17;fontColor=#0066CC;width=10;fillColor=none;sketch=1;curveFitting=1;jiggle=2;strokeColor=#0066CC;" edge="1" parent="1">
                    <mxGeometry width="50" height="50" relative="1" as="geometry">
                        <mxPoint x="400" y="150" as="sourcePoint"/>
                        <mxPoint x="400" y="230" as="targetPoint"/>
                        <Array as="points">
                            <mxPoint x="400" y="170"/>
                            <mxPoint x="400" y="190"/>
                        </Array>
                    </mxGeometry>
                </mxCell>
                <mxCell id="17" value="" style="shape=flexArrow;endArrow=classic;html=1;fontSize=17;fontColor=#0066CC;width=10;fillColor=none;sketch=1;curveFitting=1;jiggle=2;strokeColor=#0066CC;" edge="1" parent="1">
                    <mxGeometry width="50" height="50" relative="1" as="geometry">
                        <mxPoint x="320" y="150" as="sourcePoint"/>
                        <mxPoint x="320" y="230" as="targetPoint"/>
                        <Array as="points">
                            <mxPoint x="320" y="170"/>
                            <mxPoint x="320" y="190"/>
                        </Array>
                    </mxGeometry>
                </mxCell>
                <mxCell id="18" value="" style="shape=flexArrow;endArrow=classic;html=1;fontSize=17;fontColor=#0066CC;width=10;fillColor=none;sketch=1;curveFitting=1;jiggle=2;strokeColor=#0066CC;" edge="1" parent="1">
                    <mxGeometry width="50" height="50" relative="1" as="geometry">
                        <mxPoint x="490" y="150" as="sourcePoint"/>
                        <mxPoint x="490" y="230" as="targetPoint"/>
                        <Array as="points">
                            <mxPoint x="490" y="170"/>
                            <mxPoint x="490" y="190"/>
                        </Array>
                    </mxGeometry>
                </mxCell>
                <mxCell id="19" value="" style="shape=flexArrow;endArrow=classic;html=1;fontSize=17;fontColor=#0066CC;width=10;fillColor=none;sketch=1;curveFitting=1;jiggle=2;strokeColor=#0066CC;" edge="1" parent="1">
                    <mxGeometry width="50" height="50" relative="1" as="geometry">
                        <mxPoint x="580" y="150" as="sourcePoint"/>
                        <mxPoint x="580" y="230" as="targetPoint"/>
                        <Array as="points">
                            <mxPoint x="580" y="170"/>
                            <mxPoint x="580" y="190"/>
                        </Array>
                    </mxGeometry>
                </mxCell>
                <mxCell id="22" value="" style="shape=flexArrow;endArrow=classic;html=1;fontSize=17;fontColor=#0066CC;width=10;fillColor=none;sketch=1;curveFitting=1;jiggle=2;strokeColor=#0066CC;" edge="1" parent="1">
                    <mxGeometry width="50" height="50" relative="1" as="geometry">
                        <mxPoint x="144.5" y="330" as="sourcePoint"/>
                        <mxPoint x="144.5" y="410" as="targetPoint"/>
                        <Array as="points">
                            <mxPoint x="144.5" y="360"/>
                            <mxPoint x="144.5" y="370"/>
                            <mxPoint x="144.5" y="400"/>
                        </Array>
                    </mxGeometry>
                </mxCell>
                <mxCell id="23" value="" style="shape=flexArrow;endArrow=classic;html=1;fontSize=17;fontColor=#0066CC;width=10;fillColor=none;sketch=1;curveFitting=1;jiggle=2;strokeColor=#0066CC;" edge="1" parent="1">
                    <mxGeometry width="50" height="50" relative="1" as="geometry">
                        <mxPoint x="224.5" y="330" as="sourcePoint"/>
                        <mxPoint x="224.5" y="410" as="targetPoint"/>
                        <Array as="points">
                            <mxPoint x="224.5" y="350"/>
                            <mxPoint x="224.5" y="370"/>
                        </Array>
                    </mxGeometry>
                </mxCell>
                <mxCell id="24" value="" style="shape=flexArrow;endArrow=classic;html=1;fontSize=17;fontColor=#0066CC;width=10;fillColor=none;sketch=1;curveFitting=1;jiggle=2;strokeColor=#0066CC;" edge="1" parent="1">
                    <mxGeometry width="50" height="50" relative="1" as="geometry">
                        <mxPoint x="394.5" y="330" as="sourcePoint"/>
                        <mxPoint x="394.5" y="410" as="targetPoint"/>
                        <Array as="points">
                            <mxPoint x="394.5" y="350"/>
                            <mxPoint x="394.5" y="370"/>
                        </Array>
                    </mxGeometry>
                </mxCell>
                <mxCell id="25" value="" style="shape=flexArrow;endArrow=classic;html=1;fontSize=17;fontColor=#0066CC;width=10;fillColor=none;sketch=1;curveFitting=1;jiggle=2;strokeColor=#0066CC;" edge="1" parent="1">
                    <mxGeometry width="50" height="50" relative="1" as="geometry">
                        <mxPoint x="314.5" y="330" as="sourcePoint"/>
                        <mxPoint x="314.5" y="410" as="targetPoint"/>
                        <Array as="points">
                            <mxPoint x="314.5" y="350"/>
                            <mxPoint x="314.5" y="370"/>
                        </Array>
                    </mxGeometry>
                </mxCell>
                <mxCell id="26" value="" style="shape=flexArrow;endArrow=classic;html=1;fontSize=17;fontColor=#0066CC;width=10;fillColor=none;sketch=1;curveFitting=1;jiggle=2;strokeColor=#0066CC;" edge="1" parent="1">
                    <mxGeometry width="50" height="50" relative="1" as="geometry">
                        <mxPoint x="484.5" y="330" as="sourcePoint"/>
                        <mxPoint x="484.5" y="410" as="targetPoint"/>
                        <Array as="points">
                            <mxPoint x="484.5" y="350"/>
                            <mxPoint x="484.5" y="370"/>
                        </Array>
                    </mxGeometry>
                </mxCell>
                <mxCell id="27" value="" style="shape=flexArrow;endArrow=classic;html=1;fontSize=17;fontColor=#0066CC;width=10;fillColor=none;sketch=1;curveFitting=1;jiggle=2;strokeColor=#0066CC;" edge="1" parent="1">
                    <mxGeometry width="50" height="50" relative="1" as="geometry">
                        <mxPoint x="574.5" y="330" as="sourcePoint"/>
                        <mxPoint x="574.5" y="410" as="targetPoint"/>
                        <Array as="points">
                            <mxPoint x="574.5" y="350"/>
                            <mxPoint x="574.5" y="370"/>
                            <mxPoint x="574.5" y="390"/>
                        </Array>
                    </mxGeometry>
                </mxCell>
                <mxCell id="30" value="&lt;b style=&quot;font-size: 19px;&quot;&gt;【Minio】&lt;/b&gt;&lt;br&gt;&lt;font style=&quot;font-size: 17px;&quot;&gt;提供文件存储服务&lt;/font&gt;" style="shape=ext;double=1;rounded=1;whiteSpace=wrap;html=1;fillColor=none;sketch=1;curveFitting=1;jiggle=2;fontColor=#0066CC;strokeColor=#0066CC;" vertex="1" parent="1">
                    <mxGeometry x="220" y="240" width="200" height="80" as="geometry"/>
                </mxCell>
                <mxCell id="31" value="&lt;b style=&quot;font-size: 19px;&quot;&gt;【Jenkins】&lt;/b&gt;&lt;br&gt;&lt;font style=&quot;font-size: 17px;&quot;&gt;提供部署服务&lt;/font&gt;" style="shape=ext;double=1;rounded=1;whiteSpace=wrap;html=1;fillColor=none;sketch=1;curveFitting=1;jiggle=2;fontColor=#0066CC;strokeColor=#0066CC;" vertex="1" parent="1">
                    <mxGeometry x="460" y="240" width="333" height="80" as="geometry"/>
                </mxCell>
                <mxCell id="33" style="edgeStyle=none;html=1;strokeWidth=2;fontSize=17;fontColor=#0066CC;fillColor=none;entryX=1;entryY=0.5;entryDx=0;entryDy=0;exitX=1;exitY=0.5;exitDx=0;exitDy=0;sketch=1;curveFitting=1;jiggle=2;strokeColor=#0066CC;" edge="1" parent="1" target="31">
                    <mxGeometry relative="1" as="geometry">
                        <mxPoint x="930" y="110" as="targetPoint"/>
                        <mxPoint x="850.0000000000005" y="110" as="sourcePoint"/>
                        <Array as="points">
                            <mxPoint x="920" y="110"/>
                            <mxPoint x="920" y="280"/>
                        </Array>
                    </mxGeometry>
                </mxCell>
                <mxCell id="34" value="WebHook&lt;br&gt;CI/CD&lt;br&gt;" style="text;html=1;align=center;verticalAlign=middle;resizable=0;points=[];autosize=1;strokeColor=#0066CC;fillColor=none;fontSize=17;fontColor=#0066CC;sketch=1;curveFitting=1;jiggle=2;" vertex="1" parent="1">
                    <mxGeometry x="820" y="180" width="100" height="50" as="geometry"/>
                </mxCell>
                <mxCell id="35" value="&lt;span style=&quot;font-family: Helvetica; font-size: 17px; font-style: normal; font-variant-ligatures: normal; font-variant-caps: normal; letter-spacing: normal; orphans: 2; text-indent: 0px; text-transform: none; widows: 2; word-spacing: 0px; -webkit-text-stroke-width: 0px; text-decoration-thickness: initial; text-decoration-style: initial; text-decoration-color: initial; float: none; display: inline !important;&quot;&gt;&lt;b style=&quot;&quot;&gt;公网IP：阿里云server提供服务器&lt;/b&gt;&lt;/span&gt;" style="text;whiteSpace=wrap;html=1;fontSize=19;fontColor=#0066CC;sketch=1;curveFitting=1;jiggle=2;strokeColor=#0066CC;align=left;" vertex="1" parent="1">
                    <mxGeometry x="-320" y="-100" width="270" height="40" as="geometry"/>
                </mxCell>
                <mxCell id="36" value="" style="shape=ext;double=1;rounded=0;whiteSpace=wrap;html=1;fontSize=19;fontColor=#0066CC;fillColor=none;sketch=1;curveFitting=1;jiggle=2;strokeColor=#0066CC;align=center;" vertex="1" parent="1">
                    <mxGeometry x="-340" y="-160" width="1420" height="980" as="geometry"/>
                </mxCell>
                <mxCell id="37" value="&lt;span style=&quot;font-family: Helvetica; font-size: 17px; font-style: normal; font-variant-ligatures: normal; font-variant-caps: normal; letter-spacing: normal; orphans: 2; text-indent: 0px; text-transform: none; widows: 2; word-spacing: 0px; -webkit-text-stroke-width: 0px; text-decoration-thickness: initial; text-decoration-style: initial; text-decoration-color: initial; float: none; display: inline !important;&quot;&gt;&lt;b style=&quot;&quot;&gt;域&amp;nbsp; &amp;nbsp; 名：www.yanquankun.com&lt;/b&gt;&lt;/span&gt;" style="text;whiteSpace=wrap;html=1;fontSize=19;fontColor=#0066CC;sketch=1;curveFitting=1;jiggle=2;strokeColor=#0066CC;align=left;" vertex="1" parent="1">
                    <mxGeometry x="-320" y="-140" width="270" height="40" as="geometry"/>
                </mxCell>
                <mxCell id="39" value="&lt;font&gt;&lt;b&gt;【Web Front】&lt;/b&gt;&lt;br&gt;&lt;font style=&quot;font-size: 17px;&quot;&gt;通过webpack，构建多Bundle工程，各Bundle之间互不影响，可启动或构建一个或多个Bundle&lt;/font&gt;&lt;br&gt;&lt;/font&gt;" style="shape=ext;double=1;rounded=1;whiteSpace=wrap;html=1;fontSize=19;fontColor=#0066CC;fillColor=none;arcSize=16;sketch=1;curveFitting=1;jiggle=2;strokeColor=#0066CC;" vertex="1" parent="1">
                    <mxGeometry x="80" y="430" width="560" height="80" as="geometry"/>
                </mxCell>
                <mxCell id="50" value="" style="shape=flexArrow;endArrow=classic;html=1;fontSize=17;fontColor=#0066CC;width=10;fillColor=none;sketch=1;curveFitting=1;jiggle=2;strokeColor=#0066CC;" edge="1" parent="1">
                    <mxGeometry width="50" height="50" relative="1" as="geometry">
                        <mxPoint x="220" y="530" as="sourcePoint"/>
                        <mxPoint x="220" y="610" as="targetPoint"/>
                        <Array as="points">
                            <mxPoint x="220" y="560"/>
                            <mxPoint x="220" y="570"/>
                            <mxPoint x="220" y="600"/>
                        </Array>
                    </mxGeometry>
                </mxCell>
                <mxCell id="51" value="" style="shape=flexArrow;endArrow=classic;html=1;fontSize=17;fontColor=#0066CC;width=10;fillColor=none;sketch=1;curveFitting=1;jiggle=2;strokeColor=#0066CC;" edge="1" parent="1">
                    <mxGeometry width="50" height="50" relative="1" as="geometry">
                        <mxPoint x="360" y="530" as="sourcePoint"/>
                        <mxPoint x="360" y="610" as="targetPoint"/>
                        <Array as="points">
                            <mxPoint x="360" y="560"/>
                            <mxPoint x="360" y="570"/>
                            <mxPoint x="360" y="600"/>
                        </Array>
                    </mxGeometry>
                </mxCell>
                <mxCell id="52" value="" style="shape=flexArrow;endArrow=classic;html=1;fontSize=17;fontColor=#0066CC;width=10;fillColor=none;sketch=1;curveFitting=1;jiggle=2;strokeColor=#0066CC;" edge="1" parent="1">
                    <mxGeometry width="50" height="50" relative="1" as="geometry">
                        <mxPoint x="500" y="530" as="sourcePoint"/>
                        <mxPoint x="500" y="610" as="targetPoint"/>
                        <Array as="points">
                            <mxPoint x="500" y="560"/>
                            <mxPoint x="500" y="570"/>
                            <mxPoint x="500" y="600"/>
                        </Array>
                    </mxGeometry>
                </mxCell>
                <mxCell id="54" value="Bundle A" style="shape=ext;double=1;rounded=1;whiteSpace=wrap;html=1;fontSize=17;fontColor=#0066CC;fillColor=none;sketch=1;curveFitting=1;jiggle=2;strokeColor=#0066CC;" vertex="1" parent="1">
                    <mxGeometry x="100" y="640" width="120" height="80" as="geometry"/>
                </mxCell>
                <mxCell id="55" value="Bundle B" style="shape=ext;double=1;rounded=1;whiteSpace=wrap;html=1;fontSize=17;fontColor=#0066CC;fillColor=none;sketch=1;curveFitting=1;jiggle=2;strokeColor=#0066CC;" vertex="1" parent="1">
                    <mxGeometry x="240" y="640" width="120" height="80" as="geometry"/>
                </mxCell>
                <mxCell id="56" value="Bundle C" style="shape=ext;double=1;rounded=1;whiteSpace=wrap;html=1;fontSize=17;fontColor=#0066CC;fillColor=none;sketch=1;curveFitting=1;jiggle=2;strokeColor=#0066CC;" vertex="1" parent="1">
                    <mxGeometry x="380" y="640" width="120" height="80" as="geometry"/>
                </mxCell>
                <mxCell id="57" value="Bundle ......" style="shape=ext;double=1;rounded=1;whiteSpace=wrap;html=1;fontSize=17;fontColor=#0066CC;fillColor=none;sketch=1;curveFitting=1;jiggle=2;strokeColor=#0066CC;" vertex="1" parent="1">
                    <mxGeometry x="520" y="640" width="120" height="80" as="geometry"/>
                </mxCell>
                <mxCell id="59" value="&lt;font style=&quot;font-size: 19px;&quot;&gt;&lt;b&gt;GitHub&lt;/b&gt;&lt;/font&gt;" style="shape=ext;double=1;rounded=1;whiteSpace=wrap;html=1;labelBackgroundColor=none;sketch=1;strokeColor=#0066CC;fontSize=17;fontColor=#0066CC;fillColor=none;" vertex="1" parent="1">
                    <mxGeometry x="730" y="70" width="120" height="80" as="geometry"/>
                </mxCell>
                <mxCell id="61" value="静态资源转发&lt;br&gt;API代理" style="text;html=1;align=center;verticalAlign=middle;resizable=0;points=[];autosize=1;strokeColor=none;fillColor=none;fontSize=19;fontColor=#0066CC;" vertex="1" parent="1">
                    <mxGeometry x="-190" y="340" width="140" height="60" as="geometry"/>
                </mxCell>
            </root>
        </mxGraphModel>
    </diagram>
</mxfile>